<?xml version="1.0" encoding="iso-8859-1"?>
<!-- Generator: Adobe Illustrator 16.0.3, SVG Export Plug-In . SVG Version: 6.00 Build 0)  -->
<!DOCTYPE svg PUBLIC "-//W3C//DTD SVG 1.1//EN" "http://www.w3.org/Graphics/SVG/1.1/DTD/svg11.dtd">
<svg version="1.1" id="Layer_1" xmlns="http://www.w3.org/2000/svg" xmlns:xlink="http://www.w3.org/1999/xlink" x="0px" y="0px"
	 width="90px" height="90px" viewBox="0 0 90 90" style="enable-background:new 0 0 90 90;" xml:space="preserve">
<g>
	<path style="fill:#D62D25;" d="M83.546,44.655c-33.13,3.051-35.605,5.523-38.653,38.653c-3.05-33.13-5.521-35.602-38.654-38.653
		c33.132-3.05,35.604-5.521,38.654-38.652C47.941,39.134,50.416,41.605,83.546,44.655z"/>
	<path style="fill:#D62D25;" d="M82.781,24.264c-12.621,1.161-13.562,2.102-14.726,14.726c-1.161-12.625-2.102-13.565-14.722-14.726
		c12.621-1.16,13.562-2.105,14.722-14.726C69.219,22.159,70.161,23.104,82.781,24.264z"/>
	<path style="fill:#D62D25;" d="M86.589,63.711c-8.206,0.754-8.816,1.369-9.57,9.571c-0.754-8.202-1.369-8.816-9.571-9.571
		c8.202-0.754,8.816-1.365,9.571-9.57C77.773,62.346,78.384,62.957,86.589,63.711z"/>
</g>
</svg>
