<?xml version="1.0" encoding="utf-8"?>
<!-- Generator: Adobe Illustrator 17.1.0, SVG Export Plug-In . SVG Version: 6.00 Build 0)  -->
<!DOCTYPE svg PUBLIC "-//W3C//DTD SVG 1.1//EN" "http://www.w3.org/Graphics/SVG/1.1/DTD/svg11.dtd">
<svg version="1.1" id="Layer_1" xmlns="http://www.w3.org/2000/svg" xmlns:xlink="http://www.w3.org/1999/xlink" x="0px" y="0px"
	 viewBox="-102.5 -41.5 410 166" enable-background="new -102.5 -41.5 410 166" xml:space="preserve">
<g id="Layer_1_1_">
	<g>
		<g>
			<g>
				<g>
					<g>
						<path fill="#FAE5E5" d="M-49.5-32c5.1-2.2,9.6-2.5,13.5-0.8c4,1.6,6.5,4.6,7.3,8.7c0.9,4.1-1.8,7.7-8.2,11.1
							c-2,1.1-4.6,1.9-7.6,2.5c-1.5,0.2-2.4,0.5-2.5,0.7c-0.2,0.2-0.4,2.2-0.6,6.1c-0.2,2.8-0.8,5.8-1.7,8.8c-1,3-1.5,5.6-1.6,7.8
							c-0.1,0.9,0.9,1.4,2.9,1.3c2.1-0.1,3.7,0,5,0.2c3,0.5,6.1,0.5,7.9,0.9c2.7,0.9,5.2,1.4,6.9,3.2c0.2,0.2,0.5,0.6,0.9,1.3
							c0.4,0.6,0.6,1.1,0.8,1.4c0.2,0.5,0.2,0.7,0.1,0.6c-0.1-0.1,0.1,0.1,0.4,0.5c0.3,0.5,0.7,0.8,1.1,1.4
							c-0.8,2.2-2.9,3.8-6.2,4.8c-3.3,0.9-6.4,1.2-9.2,0.9c-1.4-2.5-2.7-5.1-4.1-7.6c-1.5-2.5-4.1-3.8-7.8-3.8
							c-1.4,4.6-3.8,8.1-7.4,10.3c-3.6,2.2-7.2,3.5-11,3.9c-3.7,0.4-7.1,0.1-10-0.9c-2.8-1.1-4.3-2.5-4.3-4.2c0-2.9,1.6-5.5,4.8-7.6
							s5.9-3.8,8.1-4.8c0.8-0.4,2-0.7,3.8-1.1c1.8-0.4,2.9-0.5,3.3-0.5l4.2-23.4c-0.6-0.4-2.1-0.7-4.3-0.9c-2.2-0.2-4.5-0.5-6.9-1.2
							c-2.4-0.6-4.6-1.6-6.5-3.1c-1.9-1.4-2.8-3.6-2.8-6.6c0-1.9,0.7-3.4,2.2-4.6c1.5-1.4,2.7-1.8,3.5-1.4c1.1,0.7,2.6,4.2,5.1,7.4
							c1.2,1.7,2.7,3.1,4.4,4.4c1.8,1.2,3.8,1.8,6.2,1.6C-57.9-24-54.5-29.7-49.5-32z M-74.7,26.6c1.6,1.6,2.9,1.7,3.7,0.4
							c0.9-1.4,1.5-2.2,1.6-2.4c1-1.5,1.4-2.1,1.2-2.1c-0.2,0.1-0.1-0.3,0.5-1.2s0.9-1.4,1-1.6s0.2-0.8,0.2-1.9
							C-71,18.8-79.3,22.2-74.7,26.6z M-37.8-26.5c-1.1-1.3-2.2-1.5-3.2-0.8c-0.9,0.8-1.8,1.9-2.6,3.5c-0.7,1.6-1.3,3.4-1.8,5.2
							c-0.4,1.9-0.6,3.2-0.7,4.1C-41.8-14.4-34-22-37.8-26.5z"/>
						<path fill="#FAE5E5" d="M-14,17.6c2.7-2.4,4.9-7.1,6.4-14C-6.9,1-6.5-1-6.1-2.4c0.4-1.5,1.5-2.5,3.6-3.3
							c1.6-0.6,3.4-0.8,5.1-0.5C4.4-6,5.8-5.1,6.8-3.5c0.1,2.4-0.8,5.1-2.5,8c-1.8,2.9-2.2,7.2-1.4,13l0.5,0.4L12.2,3
							c1.2,1.3,0.9,2.6,0.9,5.4c0,2.4-2.1,6.8-4.7,10.5c-2.5,3.7-5.6,6.8-7.5,6.8c-2.1,0-3.6-0.5-4.4-1.7c-0.8-1.2-1.9-2.6-3.5-4.4
							c-1.2,1-2.2,2.2-3,3.5c-0.6,1.4-1.8,2.3-3.4,2.9c-1.1,0.4-2.7,0.6-4.8,0.8c-2.1,0.2-3.6-0.1-4.5-0.9c-3.2-2.5-4.8-5.3-4.9-8.5
							c-0.1-3.2,0.1-7.2,0.8-12c0.2-1.8,0.6-3.8,1.1-6.1C-25-3-24.3-4.4-23.3-5c0.9-0.6,2.6-1.1,4.8-1.5c2.2-0.4,3.9-0.2,5.2,0.6
							c1.3,0.9,1.4,2.4,0.2,4.4c-1.2,2-1.9,3.8-2.2,5.1c-0.4,1.4-1,3.4-1.7,5.9c-0.6,2.6-0.9,4.5-0.9,5.9
							C-18.1,19.3-16.7,20-14,17.6z"/>
						<path fill="#FAE5E5" d="M34.6,16.5c2.1-2.9,3.8-5.6,5-8c1-1.9,4.1-8.8,5.4-2.4c0.2,1.1-0.3,2.7-1.4,4.8
							c-1.1,2.1-1.8,3.6-2.3,4.4c-1.7,3.3-3.4,5.9-5.2,7.7c-1.7,1.9-4.1,3.6-7.2,5.1c-2.7,1.4-5.6,1.4-9,0.2
							c-3.4-1.2-5.6-3.1-6.9-5.4c-2.1-3.7-3-7.3-2.5-10.8C11,8.7,12.2,5.6,14.2,3c2-2.5,4.4-4.6,7.3-5.9c2.9-1.5,5.6-1.9,8.2-1.5
							C31.3-4,33-4,34.8-4.1c1.8-0.2,2.6,1.2,2.3,4.2c-0.2,1.5-0.7,3.4-1.6,5.4c-0.9,2.1-1.9,2.8-3,2.2C30.9,7,29.7,6.1,28.7,5
							c-0.9-1.2-2.2-1-3.7,0.5c-0.9,0.9-1.7,2.2-2.6,3.9c-0.8,1.7-1.3,3.4-1.4,5.2c-0.1,1.6,0.2,3.1,0.9,4.4
							c0.8,1.2,2.4,1.9,4.8,1.9C29.9,20.9,32.5,19.4,34.6,16.5z"/>
						<path fill="#FAE5E5" d="M73.7,20.8c1.1-0.9,2.2-2.2,3.4-3.6c1.2-1.6,2.2-3,3.2-4.4c1-1.4,1.6-2.1,2-2c1.1,0.3,1.3,1.6,0.6,3.9
							c-0.6,2.2-1.8,4.6-3.5,7.1c-1.6,2.5-3.8,4.5-6.2,6.2c-2.5,1.8-5.1,2.2-7.8,1.4c-4.1-1.2-5.4-4.8-5.6-10.2
							c-0.2-3.6-1.2-5-3.2-4.4c-2.1,0.6-3.3,1.9-3.9,3.9s-0.9,4.5-1.1,7.3c-0.1,2.8-1.5,4.1-3.9,3.8c-2.5-0.4-4-1.6-4.4-3.5
							c-0.4-1.9-0.5-4.4-0.5-7.4c0.2-9.6,1.5-20.5,2.8-30.2c0.5-4.2,1.6-8.2,3.5-12.1c1.8-3.8,4.6-6.3,8.2-7.4
							c2-0.5,11.6-2.8,11,1.6c-0.2,0.9-1.1,2.7-2.8,5.4c-1.6,2.6-2.7,4.2-3.2,4.7C61.8-18.5,61-17,60-14.8c-0.9,2.2-1.9,4.6-2.9,7.2
							c-0.9,2.6-1.6,5.1-2.2,7.4c-0.5,2.4-0.6,3.9-0.3,4.8c0.6,0.2,8.5-8.4,17.2-6.5c2.1,0.5,3.5,2.4,4.4,5.6
							c0.8,3.2-0.9,6.6-5.5,10.1l0.6,6.9C71.7,21.7,72.6,21.7,73.7,20.8z M64.2,9.6c1.2-0.1,2.1-0.5,2.6-1.5
							c0.6-0.9,0.9-1.8,0.8-2.6c-0.1-0.8-0.5-1.2-1.2-1.4c-0.8-0.2-1.8,0.6-3.2,2.1l-1.4,1.4c-0.6,0.6-1,1.1-1.1,1.5L64.2,9.6z"/>
						<path fill="#FAE5E5" d="M116.3,5.1l3.6,1.4c-0.1,2.1-0.8,4.6-2.2,7.6c-1.3,3-2.5,5-3.2,6c-1.5,2-2.6,2.9-4.5,4.5
							c-1,0.8-1.5,1.8-1.4,2.9c0.1,1.2,0,2.6-0.4,4.5c-0.6,2.8-1.1,5.2-1.6,7.2c-0.5,2-1.6,4-3.1,5.9c-1.2,1.5-2.9,2.8-4.9,4.1
							c-2,1.3-3.9,2.3-5.8,2.9c-11.6,3.7-20-8.8-13.9-16.1c1.4-1.6,3.2-3,5.5-3.9c2.4-1,4.6-2,6.9-2.9c2.3-0.9,4.2-1.9,5.9-3
							c1.6-1.1,2.5-2.6,2.5-4.4c-3.1,0.5-4,6.8-11.9,3.5c-1.4-0.5-2.8-2.2-4.5-5.1c-1.6-2.8-2.5-5.5-2.5-7.9
							c-0.1-2.2,0.3-4.8,1.1-7.9c0.9-3.2,1.8-5.6,3-7.5c0.9-1.5,2.9-2.5,5.8-2.8c3.1-0.4,5.2,0.6,6.4,2.9
							c-0.9,3.4-8.1,13.6-6.3,21.2c0.5,2.1,1.3,2.7,2.3,1.8c1.1-0.8,2.2-2.3,3.4-4.3c1.1-2,2.2-4.1,3.2-6.3c0.9-2.2,1.5-3.5,1.7-4.1
							c0.5-1.4,1.1-3,1.8-4.9c0.7-1.9,1.5-3.6,2.4-4.9c1-1.4,2-2.2,3.2-2.5c1.2-0.3,2.6,0.5,4.1,2.5c2.5,3.4-3.1,16.4-3.3,22.2
							L116.3,5.1z M92.4,33.5c-1.2,0.3-2.5,1.1-3.9,2.4c-1.3,1.4-1.8,3.1-1.5,5.2c0.4,2.2,1.5,3.3,3.5,3.4c2.1,0.1,3.7-0.4,4.9-1.3
							c2.5-1.8,3.5-4.6,4.6-9C101,29.4,94.7,32.9,92.4,33.5z"/>
					</g>
					<g>
						<path fill="#FAE5E5" d="M64.6,54.2c-3.2-0.5-5.9-0.7-8.2-0.6c-3.9,0.4-6.7,1.1-8.5,2.3c-1.6,1.2-3.4,1.9-5.2,2.2
							c-1.9,0.4-3.8-0.8-5.6-3.6c-1.8-2.9-2.5-5-2-6.3c0.4-1.9,2.3-3.1,5.2-3.7c3-0.7,5.6-1.2,7.6-1.4c4.8-0.4,10.2-0.1,16,1.1
							c5.9,1.3,10.6,2.5,14.2,3.7c1.8,0.6,2.8,0.8,3,0.4c0.2-0.4,1-1.3,2.3-2.5c1.7-1.3,4.3-2.1,6.2-2.1c7.8,0.4-0.5,6.4-1.8,8.4
							c0.3,0.4,1.7,1.4,4.3,3.2c2.6,1.9,4.3,3,4.9,3.4c2.9,1.9,4.8,3.5,5.6,4.7c0.8,1.1,1.7,2,2.6,2.8c1.7,1.4,4.1,4.2,7.2,8.5
							c3.1,4.2,4.7,7.9,4.7,11c0,4,0.1,6.8,0.3,8.4c0.1,1.7-0.8,3.9-3.2,6.6c-1.1,1.2-2.5,2.7-4.6,4.2c-2,1.6-3.9,2.7-5.6,3.2
							c-6.2,2.2-11.1,2.9-14.6,2.4c-3.5-0.6-8-2.3-13.4-4.9c-6.6,11.3-25,13.6-32.7,2c-2.3-3.4-3-6.7-2-9.9c1.1-3.2,3.2-5.6,6.3-7.2
							c1-0.5,2.7-0.9,5.2-1.6c2.5-0.6,4.2-1,5.2-1c1.8,0.1,3.5,0.6,5.1,1.7c1.6,1,3,1.6,4,1.7c0.4-5.9,0.6-10.4,0.6-13.6
							c0.1-3.2,0.8-7.8,2.1-13.5c0.2-0.8,0.6-2.2,1.2-4.2c0.7-2,1.1-3.3,1.1-3.9C70.3,55.3,67.7,54.7,64.6,54.2z M64.7,102.8
							c1.1-2.1,1.6-4,1.5-5.7c-1.8-1.1-4-1.3-6.2-0.6c-2.3,0.6-3.8,1.8-4.5,3.5c-0.6,1.3-0.5,2.5,0.3,4c0.7,1.3,1.9,2,3.3,2
							C61.7,106,63.6,104.9,64.7,102.8z M80.7,100c5.5,0.8,9.2,0.3,13.5-2.8c3.1-2,5.1-4,6-5.9c0.9-1.8,1.4-4.4,1.4-7.5
							c0-1.6-0.8-3.5-2.3-5.8c-1.5-2.4-3.2-4.7-5.2-6.8c-2-2.3-3.9-4.2-5.9-5.8c-1.9-1.7-3.2-2.6-4.2-2.8L80.7,100z"/>
						<path fill="#FAE5E5" d="M129.6,88.5c-1.6-1.3-2.8-1.6-3.8-0.9c-1.1,1-2.5,2.2-4,3.5c-1.5,1.3-2.9,1.1-4.3-0.9
							c-1.4-1.8-1.6-3.8-0.7-6c0.9-2.1,1.8-3.9,2.3-5.3c1-2.2,1.7-4,2-5.5c0.4-1.4,1.8-2.1,4.2-2c4.4,0.4,7.3,0.9,8.8,1.8
							c1.6,0.8,2.5,1.8,2.9,2.9c0.5,1.1,0.8,2.3,1,3.6c0.2,1.3,1.3,2.5,3,3.7c1.4,0.9,2.9,1.8,4.5,2.5c1.8,0.8,2.6,2.3,2.5,4.6
							c-0.1,1.6-0.8,3.3-2.1,5.4c-1.2,2.1-1.9,3.7-2,5.1c4-2,9.2-13.1,12.1-11.2c0.7,1.5,0.4,3.5-0.8,6.2c-1.2,2.7-2.8,5.3-4.7,8
							c-1.9,2.7-3.8,5-5.8,7.1c-2,2.2-3.3,3.4-4.1,3.9c-2.2,1.4-4.5,1.6-7,0.7c-2.5-0.9-4-3-4.4-6.4c-0.1-1.1,0-2.5,0.4-4.4
							c0.4-1.9,0.8-3.5,1.1-4.7c0.3-2.1,0.8-3.7,1.4-4.7c0.6-1.1,1-2.2,1.2-3.3C132.3,90.9,131.1,89.8,129.6,88.5z"/>
						<path fill="#FAE5E5" d="M171.6,110.6c-0.7,1.2-2.8,2.1-6.2,2.8c-1.8,0.3-3.7,0.4-5.7,0.2c-2-0.1-3.6-1.1-4.7-3.1
							c-6-9.7,1.9-23.4,6.1-28.2c1.9-2.4,4.4-3.9,7.5-4.6c3.1-0.8,6-0.5,8.8,0.7c2.3,1.1,3.3,1.3,3.1,0.9c-0.2-0.5,0.5-1.1,2-1.6
							c1.5-0.6,3.9,1.1,5.4,1.9c1.3,0.8,1.7,1.8,1.3,2.9c-0.4,1.1-0.7,2.5-1,4.3c0,0.1-0.1,0.8-0.4,2.5c-0.3,1.6-0.6,3.5-0.9,5.5
							c-0.4,2-0.6,3.9-0.9,5.6c-0.2,1.7-0.4,2.5-0.4,2.6c1,0.1,2.3-0.9,3.8-3c1.6-2.2,2.6-3.7,3.1-4.3c1.8-2.6,2.7-4.3,2.9-5.1
							c0.3-0.7,1.8-1.1,4.6-1.1c0,3.2-1.1,6.7-3.2,10.5c-2.2,3.8-4.6,6.8-7.3,9.2c-2.8,2.4-5.4,3.6-8.1,3.7c-2.7,0-4.6-2.2-5.6-6.5
							C173.7,107.9,172.4,109.4,171.6,110.6z M168.2,90.8c-0.5,1.3-1.3,2.9-2.3,5c-1.2,2.7-1.3,4.6-0.4,5.8c1,1.1,2.2,1.4,3.7,0.8
							c1.6-0.6,3-1.8,4.2-3.7c1.1-2,2-4,2.3-5.9c0.4-2,0.3-3.5-0.4-4.7c-0.6-1.2-1.9-1.3-3.8-0.5C170,88.5,168.9,89.5,168.2,90.8z"
							/>
						<path fill="#FAE5E5" d="M250.3,94.6c-1.7,4.4-4.2,10.2-7.3,13.8c-3.4,3.7-6.2,5.7-8.5,5.9c-2.3,0.2-5.1-1.3-8.6-4.7
							c-1.1-1.1-1.8-2.2-2.3-3.6c-0.4-1.5-1.1-2.4-2-3c-1.5,0.4-7.3,11.7-12.6,10.6c-3-0.6-5.2-2.4-6.6-5.4
							c-1.3-3.1-2.6-6.2-3.7-9.5c-1.1-3.1-1.5-7.3-1.1-12.3c0.4-5.2,1.2-8.8,2.5-11c1.6-2.6,4.3-3.7,8.3-3.2c4,0.4,6.6,1.6,7.8,3.6
							c0.1,0.6-0.8,2.8-3.2,6.5c-2.3,3.7-3.3,9-3.3,15.8c0,2.8,0.9,5.1,2.6,5.4c2.3-1.8,3.6-4.5,4.2-8.4c0.6-4,1.3-7.7,2.3-11.2
							c1-3.9,3-5.9,6.3-5.9c3.2,0,5.9,1.3,7.9,3.8c-0.7,2-1.4,5.1-2,9.4c-0.6,4.2-0.9,7.8-0.9,10.7c0,0.1,0.1,0.7,0.3,1.9
							c0.2,1.1,0.3,1.9,0.4,2.1c5,0,9.2-15.7,9.2-23.1c-0.1-4.6-0.3-7.1-0.6-7.7c-0.4-0.6,1.6-1,5.9-1.3c2.3-0.2,4.3-0.1,6.6,1.9
							c1,1,1.4,1.3,1.2,1.1c-0.1-0.3,0.1-0.2,0.9,0.2C252.5,82.3,255.2,80.3,250.3,94.6z"/>
					</g>
				</g>
				<g>
					<path fill="#FAE5E5" d="M290,46.8l-16.9,16.9h-8.5v-8.5l16.9-16.9L290,46.8z M273.9,59.2l-4.8-4.8l-1.8,1.8v2.2h2.6v2.6h2.2
						L273.9,59.2z M282.2,41.8c-0.1,0-0.2,0-0.3,0.1l-11,11c-0.1,0.1-0.1,0.2-0.1,0.3c0,0.3,0.2,0.4,0.4,0.4c0.1,0,0.2,0,0.3-0.1
						l11-11c0.1-0.1,0.1-0.2,0.1-0.3C282.6,42,282.5,41.8,282.2,41.8z M294.7,42.1l-3.4,3.4l-8.5-8.5l3.4-3.4
						c0.5-0.5,1.1-0.8,1.8-0.8c0.7,0,1.4,0.3,1.8,0.8l4.8,4.8c0.5,0.5,0.8,1.2,0.8,1.8C295.4,41,295.1,41.6,294.7,42.1z"/>
				</g>
			</g>
		</g>
	</g>
</g>
</svg>
