<?xml version="1.0" encoding="utf-8"?>
<!-- Generator: Adobe Illustrator 17.0.2, SVG Export Plug-In . SVG Version: 6.00 Build 0)  -->
<!DOCTYPE svg PUBLIC "-//W3C//DTD SVG 1.1//EN" "http://www.w3.org/Graphics/SVG/1.1/DTD/svg11.dtd">
<svg version="1.1" id="Layer_1" xmlns="http://www.w3.org/2000/svg" xmlns:xlink="http://www.w3.org/1999/xlink" x="0px" y="0px"
	 width="205px" height="83px" viewBox="0 0 205 83" enable-background="new 0 0 205 83" xml:space="preserve">
<g id="Layer_1">
	
		<image overflow="visible" opacity="0.3" width="219" height="105" xlink:href="D2EB0533C72DD547.png"  transform="matrix(1 0 0 1 -4 -10)">
	</image>
	<g>
		<g>
			<g>
				<g>
					<g>
						<path fill="#FAE5E5" d="M28.79,5.029c2.499-1.104,4.736-1.22,6.683-0.407c1.976,0.814,3.197,2.267,3.632,4.301
							c0.465,2.005-0.872,3.807-4.039,5.492c-0.988,0.553-2.267,0.959-3.749,1.221c-0.727,0.116-1.163,0.232-1.25,0.349
							c-0.087,0.087-0.204,1.104-0.291,2.993c-0.087,1.395-0.378,2.848-0.843,4.359c-0.494,1.482-0.755,2.76-0.813,3.865
							c-0.058,0.465,0.436,0.668,1.424,0.639c1.017-0.029,1.831,0,2.47,0.087c1.482,0.232,2.993,0.261,3.923,0.465
							c1.337,0.436,2.586,0.697,3.4,1.569c0.087,0.087,0.232,0.291,0.436,0.64c0.174,0.319,0.319,0.552,0.378,0.697
							c0.087,0.262,0.087,0.349,0.029,0.291c-0.029-0.058,0.029,0.029,0.203,0.262c0.146,0.232,0.349,0.407,0.553,0.668
							c-0.407,1.104-1.424,1.889-3.081,2.354c-1.627,0.437-3.138,0.582-4.562,0.437c-0.668-1.25-1.337-2.5-2.034-3.749
							c-0.727-1.249-2.005-1.889-3.865-1.86c-0.668,2.296-1.889,4.01-3.661,5.085c-1.773,1.075-3.574,1.744-5.434,1.947
							c-1.831,0.175-3.487,0.058-4.94-0.465c-1.394-0.523-2.121-1.22-2.121-2.092c0-1.453,0.784-2.703,2.354-3.778
							s2.906-1.889,4.01-2.383c0.378-0.174,0.988-0.349,1.86-0.552c0.901-0.204,1.424-0.262,1.627-0.233l2.092-11.565
							c-0.29-0.204-1.017-0.349-2.121-0.437c-1.075-0.087-2.208-0.261-3.4-0.581s-2.266-0.813-3.225-1.511
							c-0.93-0.698-1.366-1.801-1.366-3.254c0-0.93,0.349-1.685,1.104-2.296c0.727-0.668,1.337-0.9,1.744-0.697
							c0.552,0.349,1.278,2.063,2.499,3.662c0.61,0.843,1.337,1.54,2.179,2.15c0.872,0.611,1.889,0.901,3.081,0.814
							C24.605,8.952,26.319,6.133,28.79,5.029z M16.294,33.971c0.784,0.784,1.424,0.842,1.831,0.204
							c0.465-0.698,0.726-1.075,0.785-1.163c0.494-0.727,0.697-1.046,0.581-1.017c-0.116,0.029-0.029-0.145,0.232-0.61
							s0.436-0.698,0.494-0.785c0.058-0.087,0.087-0.407,0.087-0.959C18.125,30.106,14.057,31.792,16.294,33.971z M34.572,7.731
							c-0.552-0.639-1.075-0.756-1.569-0.378c-0.465,0.378-0.9,0.959-1.278,1.744c-0.349,0.813-0.639,1.656-0.872,2.557
							c-0.204,0.93-0.32,1.598-0.349,2.034C32.596,13.688,36.402,9.94,34.572,7.731z"/>
						<path fill="#FAE5E5" d="M46.312,29.525c1.337-1.191,2.412-3.516,3.167-6.916c0.319-1.308,0.552-2.296,0.727-2.964
							c0.174-0.727,0.755-1.25,1.772-1.627c0.813-0.291,1.656-0.377,2.528-0.261c0.901,0.087,1.598,0.552,2.063,1.336
							c0.029,1.191-0.377,2.499-1.249,3.952c-0.901,1.453-1.104,3.574-0.669,6.422l0.233,0.203l4.388-7.381
							c0.582,0.639,0.465,1.279,0.465,2.645c0,1.162-1.046,3.342-2.325,5.172c-1.25,1.831-2.79,3.342-3.719,3.342
							c-1.046,0-1.772-0.262-2.18-0.843c-0.407-0.582-0.958-1.279-1.714-2.15c-0.61,0.494-1.104,1.104-1.482,1.744
							c-0.319,0.668-0.9,1.133-1.685,1.423c-0.552,0.204-1.336,0.32-2.383,0.407c-1.017,0.087-1.773-0.058-2.208-0.436
							c-1.569-1.22-2.383-2.615-2.412-4.184c-0.058-1.599,0.058-3.575,0.407-5.928c0.117-0.872,0.291-1.859,0.553-2.993
							c0.261-1.133,0.61-1.831,1.133-2.151c0.465-0.29,1.278-0.523,2.354-0.726c1.075-0.174,1.917-0.087,2.557,0.319
							c0.639,0.436,0.668,1.163,0.087,2.18c-0.581,0.988-0.958,1.86-1.104,2.499c-0.203,0.697-0.494,1.656-0.842,2.935
							c-0.291,1.278-0.465,2.237-0.465,2.935C44.307,30.368,44.976,30.717,46.312,29.525z"/>
						<path fill="#FAE5E5" d="M70.314,28.973c1.046-1.452,1.86-2.79,2.47-3.952c0.494-0.958,2.005-4.33,2.673-1.163
							c0.087,0.553-0.145,1.337-0.697,2.383c-0.523,1.046-0.901,1.773-1.133,2.18c-0.843,1.627-1.686,2.906-2.586,3.807
							c-0.843,0.93-2.034,1.772-3.545,2.528c-1.336,0.669-2.79,0.698-4.446,0.087c-1.656-0.61-2.789-1.511-3.429-2.644
							c-1.046-1.831-1.482-3.604-1.22-5.318c0.262-1.743,0.872-3.284,1.86-4.563c0.988-1.25,2.179-2.266,3.604-2.935
							c1.423-0.727,2.789-0.93,4.067-0.727c0.785,0.175,1.627,0.204,2.5,0.116c0.872-0.116,1.279,0.582,1.133,2.092
							c-0.087,0.756-0.349,1.656-0.813,2.674c-0.465,1.017-0.959,1.365-1.482,1.104c-0.756-0.348-1.366-0.813-1.86-1.365
							c-0.464-0.611-1.104-0.494-1.831,0.262c-0.436,0.436-0.843,1.104-1.279,1.947c-0.407,0.843-0.64,1.685-0.697,2.557
							c-0.058,0.814,0.087,1.541,0.465,2.18c0.407,0.61,1.191,0.93,2.354,0.93C67.99,31.152,69.269,30.426,70.314,28.973z"/>
						<path fill="#FAE5E5" d="M89.668,31.094c0.523-0.465,1.104-1.075,1.657-1.802c0.61-0.785,1.104-1.482,1.598-2.179
							c0.494-0.668,0.813-1.017,0.988-0.988c0.523,0.146,0.639,0.784,0.32,1.917c-0.32,1.104-0.873,2.296-1.745,3.516
							c-0.813,1.221-1.859,2.238-3.08,3.081c-1.22,0.872-2.5,1.075-3.836,0.697c-2.004-0.582-2.673-2.354-2.79-5.056
							c-0.087-1.773-0.61-2.47-1.598-2.15c-1.017,0.291-1.627,0.959-1.918,1.947s-0.435,2.208-0.523,3.632
							c-0.058,1.395-0.727,2.005-1.947,1.86c-1.25-0.203-1.976-0.785-2.18-1.744c-0.203-0.959-0.261-2.179-0.231-3.662
							c0.116-4.765,0.755-10.141,1.394-14.906c0.262-2.063,0.813-4.04,1.744-5.958c0.901-1.888,2.266-3.109,4.039-3.661
							c0.988-0.262,5.753-1.365,5.435,0.785c-0.088,0.465-0.553,1.336-1.366,2.645c-0.813,1.278-1.336,2.063-1.569,2.325
							c-0.291,0.29-0.668,1.017-1.191,2.121c-0.465,1.104-0.959,2.295-1.424,3.574c-0.436,1.279-0.813,2.5-1.104,3.662
							c-0.233,1.162-0.291,1.917-0.146,2.354c0.32,0.117,4.214-4.155,8.485-3.226c1.017,0.262,1.715,1.191,2.15,2.761
							c0.408,1.569-0.464,3.255-2.701,4.998l0.29,3.429C88.68,31.559,89.116,31.559,89.668,31.094z M84.961,25.573
							c0.582-0.029,1.046-0.262,1.308-0.727c0.32-0.465,0.435-0.9,0.377-1.278c-0.029-0.378-0.233-0.61-0.581-0.668
							c-0.378-0.087-0.901,0.291-1.569,1.046l-0.668,0.668c-0.291,0.291-0.494,0.552-0.523,0.755L84.961,25.573z"/>
						<path fill="#FAE5E5" d="M110.678,23.336l1.802,0.668c-0.059,1.045-0.407,2.295-1.105,3.777
							c-0.667,1.482-1.22,2.47-1.568,2.964c-0.727,0.988-1.278,1.424-2.237,2.238c-0.494,0.378-0.727,0.872-0.668,1.423
							c0.058,0.582,0,1.308-0.176,2.238c-0.29,1.366-0.551,2.586-0.813,3.574c-0.261,0.988-0.784,1.976-1.54,2.936
							c-0.58,0.726-1.423,1.365-2.412,2.033c-0.987,0.639-1.917,1.133-2.876,1.424c-5.754,1.83-9.88-4.359-6.887-7.962
							c0.669-0.813,1.569-1.482,2.731-1.947c1.162-0.494,2.295-0.988,3.4-1.424c1.133-0.436,2.091-0.93,2.935-1.481
							c0.813-0.552,1.249-1.279,1.249-2.18c-1.54,0.233-1.976,3.371-5.898,1.715c-0.668-0.232-1.366-1.075-2.208-2.5
							c-0.785-1.395-1.222-2.702-1.25-3.894c-0.029-1.075,0.145-2.383,0.552-3.923c0.436-1.569,0.901-2.79,1.482-3.719
							c0.436-0.756,1.424-1.221,2.876-1.366c1.512-0.174,2.558,0.32,3.167,1.453c-0.464,1.685-4.01,6.742-3.107,10.461
							c0.231,1.045,0.638,1.336,1.161,0.9c0.553-0.407,1.104-1.133,1.686-2.121c0.553-0.988,1.075-2.034,1.569-3.109
							c0.465-1.075,0.756-1.744,0.843-2.005c0.262-0.668,0.523-1.482,0.871-2.441c0.35-0.958,0.756-1.772,1.192-2.44
							c0.493-0.698,0.987-1.104,1.598-1.221c0.582-0.145,1.278,0.262,2.005,1.25c1.221,1.656-1.54,8.107-1.627,10.955
							L110.678,23.336z M98.909,37.371c-0.61,0.145-1.221,0.552-1.918,1.191c-0.64,0.668-0.901,1.511-0.727,2.557
							c0.174,1.075,0.755,1.627,1.743,1.656c1.018,0.029,1.831-0.203,2.44-0.639c1.25-0.901,1.716-2.296,2.267-4.446
							C103.151,35.366,100.013,37.051,98.909,37.371z"/>
					</g>
					<g>
						<path fill="#FAE5E5" d="M85.131,47.623c-1.604-0.244-2.929-0.35-4.045-0.279c-1.917,0.174-3.312,0.523-4.184,1.15
							c-0.802,0.594-1.673,0.943-2.545,1.082c-0.941,0.174-1.883-0.383-2.754-1.779c-0.907-1.43-1.22-2.475-1.011-3.137
							c0.209-0.942,1.116-1.535,2.58-1.849c1.5-0.349,2.754-0.593,3.766-0.698c2.371-0.208,5.021-0.068,7.915,0.559
							c2.894,0.628,5.23,1.221,7.008,1.813c0.872,0.314,1.36,0.385,1.465,0.21c0.104-0.21,0.487-0.628,1.149-1.221
							c0.838-0.628,2.127-1.046,3.069-1.046c3.835,0.174-0.244,3.139-0.906,4.149c0.139,0.175,0.836,0.696,2.126,1.603
							c1.291,0.943,2.127,1.467,2.44,1.676c1.431,0.939,2.371,1.707,2.755,2.299c0.384,0.525,0.836,0.977,1.29,1.361
							c0.837,0.697,2.022,2.092,3.558,4.219c1.534,2.092,2.335,3.904,2.335,5.439c0,1.953,0.035,3.346,0.14,4.148
							c0.069,0.838-0.419,1.918-1.569,3.242c-0.522,0.594-1.255,1.326-2.266,2.094c-0.977,0.801-1.919,1.324-2.79,1.604
							c-3.067,1.08-5.475,1.428-7.217,1.186c-1.744-0.279-3.94-1.115-6.625-2.441c-3.243,5.58-12.343,6.729-16.144,0.977
							c-1.15-1.674-1.464-3.313-0.977-4.881c0.558-1.604,1.569-2.756,3.104-3.557c0.488-0.244,1.325-0.453,2.58-0.768
							c1.255-0.313,2.092-0.488,2.58-0.488c0.906,0.035,1.743,0.314,2.51,0.838c0.767,0.486,1.464,0.801,1.987,0.836
							c0.21-2.928,0.279-5.16,0.314-6.729c0.034-1.604,0.383-3.836,1.045-6.695c0.104-0.385,0.314-1.08,0.593-2.057
							c0.349-1.012,0.523-1.639,0.523-1.951C87.99,48.146,86.7,47.832,85.131,47.623z M85.201,71.611
							c0.523-1.047,0.767-1.986,0.732-2.824c-0.906-0.521-1.952-0.627-3.068-0.313c-1.116,0.313-1.883,0.906-2.231,1.742
							c-0.279,0.629-0.244,1.256,0.14,1.953c0.349,0.662,0.941,1.012,1.639,1.012C83.736,73.182,84.643,72.658,85.201,71.611z
							 M93.115,70.252c2.72,0.383,4.532,0.139,6.695-1.359c1.534-1.012,2.544-1.988,2.963-2.895
							c0.453-0.906,0.697-2.197,0.697-3.697c0-0.801-0.384-1.742-1.116-2.857c-0.731-1.186-1.568-2.301-2.579-3.383
							c-0.977-1.115-1.918-2.092-2.894-2.859c-0.942-0.836-1.604-1.289-2.058-1.395L93.115,70.252z"/>
						<path fill="#FAE5E5" d="M117.248,64.533c-0.803-0.662-1.395-0.801-1.883-0.453c-0.558,0.488-1.255,1.08-1.988,1.744
							c-0.732,0.662-1.429,0.521-2.127-0.455c-0.696-0.904-0.766-1.881-0.348-2.961c0.453-1.047,0.871-1.92,1.15-2.617
							c0.488-1.08,0.836-1.986,1.011-2.719c0.176-0.697,0.872-1.047,2.092-0.977c2.162,0.174,3.592,0.453,4.324,0.871
							c0.767,0.42,1.22,0.908,1.429,1.43c0.244,0.559,0.385,1.117,0.488,1.779c0.105,0.627,0.628,1.219,1.465,1.813
							c0.698,0.453,1.43,0.871,2.231,1.256c0.872,0.383,1.29,1.115,1.255,2.266c-0.034,0.766-0.383,1.639-1.045,2.65
							c-0.594,1.045-0.942,1.848-0.977,2.51c1.987-0.977,4.532-6.449,5.963-5.51c0.348,0.732,0.209,1.744-0.42,3.07
							c-0.592,1.324-1.394,2.615-2.335,3.939c-0.942,1.324-1.884,2.475-2.859,3.52c-1.012,1.084-1.639,1.676-2.021,1.92
							c-1.083,0.697-2.232,0.766-3.453,0.348c-1.221-0.453-1.952-1.498-2.196-3.139c-0.07-0.521,0-1.254,0.174-2.195
							c0.21-0.941,0.384-1.709,0.524-2.336c0.138-1.047,0.382-1.848,0.696-2.336c0.313-0.523,0.487-1.08,0.593-1.639
							C118.608,65.754,118.015,65.195,117.248,64.533z"/>
						<path fill="#FAE5E5" d="M138.031,75.447c-0.349,0.594-1.36,1.045-3.068,1.359c-0.871,0.141-1.813,0.174-2.824,0.105
							c-0.976-0.035-1.778-0.559-2.336-1.535c-2.964-4.775,0.94-11.541,2.998-13.947c0.941-1.186,2.162-1.951,3.696-2.266
							c1.534-0.383,2.964-0.244,4.358,0.35c1.115,0.521,1.639,0.662,1.534,0.453c-0.104-0.244,0.243-0.523,0.976-0.803
							c0.733-0.279,1.919,0.523,2.65,0.941c0.628,0.418,0.837,0.871,0.628,1.43c-0.175,0.521-0.349,1.221-0.488,2.127
							c0,0.035-0.069,0.418-0.209,1.254c-0.14,0.803-0.279,1.744-0.453,2.721c-0.175,0.977-0.314,1.918-0.453,2.754
							c-0.105,0.836-0.176,1.256-0.176,1.291c0.488,0.07,1.116-0.455,1.884-1.5c0.802-1.08,1.29-1.813,1.534-2.127
							c0.871-1.291,1.324-2.127,1.43-2.51c0.139-0.35,0.906-0.559,2.267-0.559c0,1.604-0.523,3.313-1.569,5.195
							c-1.081,1.885-2.267,3.383-3.626,4.568c-1.36,1.186-2.685,1.779-4.01,1.813c-1.325,0-2.267-1.08-2.755-3.207
							C139.042,74.156,138.414,74.889,138.031,75.447z M136.357,65.684c-0.244,0.629-0.628,1.432-1.116,2.477
							c-0.592,1.324-0.662,2.266-0.209,2.859c0.488,0.559,1.081,0.697,1.849,0.418s1.499-0.873,2.092-1.848
							c0.558-1.012,0.976-1.953,1.151-2.895c0.209-0.977,0.139-1.744-0.176-2.336c-0.313-0.592-0.94-0.662-1.882-0.244
							C137.229,64.533,136.671,65.057,136.357,65.684z"/>
						<path fill="#FAE5E5" d="M176.91,67.566c-0.837,2.162-2.057,5.057-3.592,6.834c-1.673,1.848-3.067,2.824-4.184,2.93
							c-1.115,0.105-2.511-0.627-4.254-2.303c-0.557-0.521-0.906-1.08-1.115-1.777c-0.209-0.732-0.558-1.184-1.011-1.465
							c-0.732,0.176-3.592,5.789-6.242,5.232c-1.499-0.281-2.58-1.188-3.277-2.686c-0.662-1.535-1.29-3.068-1.848-4.674
							c-0.558-1.533-0.731-3.59-0.522-6.1c0.209-2.582,0.592-4.359,1.22-5.439c0.768-1.291,2.127-1.814,4.079-1.57
							c1.953,0.209,3.243,0.801,3.836,1.779c0.07,0.313-0.418,1.359-1.569,3.207c-1.115,1.813-1.639,4.428-1.639,7.811
							c0,1.359,0.453,2.51,1.29,2.684c1.115-0.871,1.779-2.23,2.057-4.148c0.279-1.953,0.663-3.801,1.151-5.51
							c0.488-1.918,1.499-2.893,3.103-2.893s2.895,0.627,3.906,1.883c-0.35,1.01-0.698,2.51-1.012,4.637
							c-0.278,2.092-0.454,3.836-0.454,5.266c0,0.033,0.035,0.348,0.141,0.941c0.104,0.557,0.139,0.941,0.174,1.045
							c2.476,0,4.533-7.74,4.533-11.438c-0.035-2.266-0.141-3.52-0.279-3.799c-0.174-0.279,0.768-0.488,2.894-0.664
							c1.116-0.104,2.128-0.033,3.243,0.943c0.487,0.488,0.697,0.662,0.593,0.559c-0.07-0.141,0.07-0.105,0.453,0.104
							C178.025,61.465,179.352,60.488,176.91,67.566z"/>
					</g>
				</g>
				<g>
					<path fill="#FAE5E5" d="M196.53,43.932l-8.354,8.354H184v-4.177l8.354-8.354L196.53,43.932z M188.559,50.086l-2.359-2.359
						l-0.914,0.914v1.074h1.285V51h1.074L188.559,50.086z M192.675,41.462c-0.061,0-0.12,0.02-0.171,0.07l-5.441,5.441
						c-0.051,0.05-0.07,0.11-0.07,0.171c0,0.131,0.09,0.221,0.221,0.221c0.061,0,0.12-0.02,0.171-0.07l5.441-5.441
						c0.051-0.05,0.07-0.111,0.07-0.171C192.896,41.552,192.806,41.462,192.675,41.462z M198.84,41.623l-1.667,1.667l-4.177-4.177
						l1.667-1.657c0.23-0.241,0.562-0.381,0.903-0.381s0.673,0.141,0.914,0.381l2.359,2.35c0.23,0.241,0.371,0.572,0.371,0.914
						S199.07,41.392,198.84,41.623z"/>
				</g>
			</g>
		</g>
	</g>
</g>
</svg>
